<svg xmlns="http://www.w3.org/2000/svg" width="560" height="420"><path fill="#f8fafb" d="M420 0v140H280V0z"/><path fill="#f2c643" d="M560 0v140H420V0z"/><path fill="#05b3d7" d="M280 0v140H140V0zm280 0H420v140c77.3 0 140-62.7 140-140z"/><path fill="#f2c643" d="M490 0h-70v70c38.7 0 70-31.3 70-70z"/><circle cx="210" cy="70" r="70" fill="#f8fafb" transform="rotate(-45.001 210 70.003)"/><g fill="#1a5c96"><circle cx="350" cy="70" r="70"/><path d="M140 420H0V280h140z"/></g><path fill="#f8fafb" d="M140 280H0V140h140z"/><path fill="#f2c643" d="M140 140H0V0h140z"/><path fill="#05b3d7" d="m0 175 35-35H0zm0 35v35l105-105H70zm0 70 140-140v35L35 280zm70 0 70-70v35l-35 35z"/><path fill="#357ebf" d="M70 420.006-.003 350.003 70 280l70.003 70.003z"/><path fill="#f8fafb" d="M140 0 70 70 0 0z"/></svg>