<svg xmlns="http://www.w3.org/2000/svg" width="112.4" height="56.2"><path fill="#f8fafb" d="M28.1 28.1h28.1v28.1H28.1z"/><path fill="#05b3d7" d="M.1 28h28.1v28.1H.1z"/><path fill="#f2c643" d="M56.2 28.1h28.1v28.1H56.2z"/><path fill="#f8fafb" d="M84.3 28h28.1v28.1H84.3z"/><path fill="#1a5c96" d="m112.3 35.1-7-7h7zm0 7v7l-21-21h7zm0 14-28-28v7l21 21zm-14 0-14-14v7l7 7z"/><circle cx="70.2" cy="42.1" r="7" fill="#f8fafb"/><circle cx="42.2" cy="42.1" r="7" fill="#1a5c96"/><path fill="#f8fafb" d="m.074 42.084 14.001-14.001 14.001 14.001-14.001 14.001z"/><path fill="#05b3d7" d="M28.1 0h28.1v28.1H28.1z"/><path fill="#357ebf" d="M0 .1h28.1v28.1H0z"/><path fill="#f8fafb" d="M.1 28.1V0h28.1C28.1 15.5 15.6 28.1.1 28.1z"/><path fill="#f2c643" d="M.1 21V0h21c0 11.6-9.4 21-21 21z"/><path fill="#f8fafb" d="m28.102 14.009 14.001-14L56.104 14.01l-14.001 14z"/></svg>