<svg xmlns="http://www.w3.org/2000/svg" width="84" height="140"><path fill="#05b3d7" d="M56 56h28v28H56z"/><path fill="#f2c643" d="M55.9 0h28v28h-28zm0 112h28v28h-28z"/><path fill="#f8fafb" d="M55.9 28h28v28h-28z"/><path fill="#357ebf" d="M55.9 84h28v28h-28z"/><path fill="#f8fafb" d="m69.934 6.977 7-7 7 7-7 7zm.134 14.022 7-7 7 7-7 7zM55.983 7.042l7-7 7 7-7 7zm-.007 14.021 7-7 7 7-7 7z"/><path fill="#1a5c96" d="m84 49-7 7h7zm0-7v-7L62.9 56H70zm0-13.9L56 56v-7l21-20.9zm-14 0L56 42v-7l6.9-6.9z"/><path fill="#f8fafb" d="m62.9 112-6.9-7v7zm7.1 0h7L56 91v7zm14 0L56 84h6.9L84 105zm0-14L70 84h7l7 7z"/><path fill="#05b3d7" d="M28 28.1h28v28H28z"/><path fill="#357ebf" d="M28 56h28v28H28z"/><path fill="#f2c643" d="M28 84h28v28H28z"/><path fill="#f8fafb" d="M56 56H28v28c15.5 0 28-12.6 28-28z"/><path fill="#f2c643" d="M49 56H28v20.9c11.6.1 21-9.2 21-20.9z"/><g fill="#f8fafb"><path d="m27.98 41.997 13.93-13.93 13.93 13.93-13.93 13.93zM28 84l14 14 14-14z"/><path d="M0 28.1h28v28H0z"/></g><path fill="#f2c643" d="M0 0h28v28H0z"/><circle cx="14" cy="14" r="7" fill="#f8fafb"/><path fill="#1a5c96" d="M20.9 42c0 3.9-3.1 7-7 7s-7-3.1-7-7 3.1-7 7-7 7 3.1 7 7z"/></svg>