<?xml version="1.0" encoding="UTF-8"?>
<svg width="64" height="64" viewBox="0 0 64 64" fill="none" xmlns="http://www.w3.org/2000/svg" role="img" aria-label="Bitcoin symbol">
  <circle cx="32" cy="32" r="30" fill="#F7931A" stroke="#D97900" stroke-width="2"/>
  <path fill="#fff" d="M37.97 28.3c1.45-.97 2.37-2.49 2.37-4.34 0-4.07-3.47-6.02-7.73-6.27V14h-3.2v3.57h-2.64V14h-3.2v3.68H19v3.17h1.57v13.98H19v3.18h2.57V42h3.2v-3.54h2.64V42h3.2v-3.67c4.79-.35 7.86-2.7 7.86-6.73 0-2.57-1.32-4.52-3.46-5.3ZM26.7 19.8h5.05c2.55 0 4.24 1.2 4.24 3.26 0 2.26-1.69 3.47-4.74 3.47H26.7V19.8Zm5.34 17.4H26.7v-7.05h5.34c3.46 0 5.22 1.33 5.22 3.54 0 2.37-1.76 3.51-5.22 3.51Z"/>
</svg>
