<?xml version="1.0" encoding="UTF-8"?>
<svg width="64" height="64" viewBox="0 0 64 64" fill="none" xmlns="http://www.w3.org/2000/svg" role="img" aria-label="Euro icon">
  <circle cx="32" cy="32" r="30" fill="#1A5C96" stroke="#0c385f" stroke-width="2"/>
  <path d="M40 24c-1.7-2.3-4.7-4-9-4-5.2 0-9.2 3-10.9 8H16v3h3.5c-.1.7-.1 1.3-.1 2s0 1.3.1 2H16v3h4.1c1.7 5 5.7 8 10.9 8 4.3 0 7.3-1.7 9-4l-2.8-2c-1.2 1.7-3.4 3-6.2 3-3.5 0-6.5-1.9-7.9-5H36v-3H22.6c-.1-.7-.1-1.3-.1-2s0-1.3.1-2H36v-3H24.1c1.4-3.1 4.4-5 7.9-5 2.8 0 5 .9 6.2 2.6L40 24Z" fill="#fff"/>
</svg>
